<svg width="18" height="18" viewBox="0 0 18 18" fill="none" xmlns="http://www.w3.org/2000/svg">
<path d="M1.63633 0C0.732259 0 0 0.767122 0 1.71424V13.7139C0 14.661 0.732259 15.4282 1.63633 15.4282H7.3635C7.81512 15.4282 8.18166 15.0442 8.18166 14.571V9.5522C8.18166 8.06595 9.32717 6.85696 10.7352 6.85696C11.1672 6.85696 11.5972 6.97476 11.9769 7.19847L15.6187 9.33959C15.9525 9.53501 16.3633 9.2837 16.3633 8.88257V1.71424C16.3633 0.767122 15.6311 0 14.727 0H1.63633ZM2.04701 1.71424H2.86358C3.0894 1.71424 3.27266 1.90623 3.27266 2.1428V2.99992C3.27266 3.23648 3.0894 3.42848 2.86358 3.42848H2.04701C1.8212 3.42848 1.63793 3.23648 1.63793 2.99992V2.1428C1.63793 1.90623 1.8212 1.71424 2.04701 1.71424ZM13.4997 1.71424H14.3179C14.5437 1.71424 14.727 1.90623 14.727 2.1428V2.99992C14.727 3.23648 14.5437 3.42848 14.3179 3.42848H13.4997C13.2739 3.42848 13.0907 3.23648 13.0907 2.99992V2.1428C13.0907 1.90623 13.2739 1.71424 13.4997 1.71424ZM2.04542 5.14272H2.86358C3.0894 5.14272 3.27266 5.33471 3.27266 5.57128V6.4284C3.27266 6.66496 3.0894 6.85696 2.86358 6.85696H2.04542C1.8196 6.85696 1.63633 6.66496 1.63633 6.4284V5.57128C1.63633 5.33471 1.8196 5.14272 2.04542 5.14272ZM13.4997 5.14272H14.3179C14.5437 5.14272 14.727 5.33471 14.727 5.57128V6.4284C14.727 6.66496 14.5437 6.85696 14.3179 6.85696H13.4997C13.2739 6.85696 13.0907 6.66496 13.0907 6.4284V5.57128C13.0907 5.33471 13.2739 5.14272 13.4997 5.14272ZM2.04542 8.5712H2.86358C3.0894 8.5712 3.27266 8.76319 3.27266 8.99976V9.85688C3.27266 10.0934 3.0894 10.2854 2.86358 10.2854H2.04542C1.8196 10.2854 1.63633 10.0934 1.63633 9.85688V8.99976C1.63633 8.76319 1.8196 8.5712 2.04542 8.5712ZM10.7065 8.5712C10.2389 8.58747 9.81799 8.99293 9.81799 9.5522V17.0185C9.81799 17.7642 10.5643 18.2364 11.1747 17.8773L17.5251 14.1441C18.1583 13.7713 18.1583 12.7986 17.5251 12.4266L11.1747 8.6934C11.0221 8.60362 10.8623 8.56577 10.7065 8.5712ZM2.04542 11.9997H2.86358C3.0894 11.9997 3.27266 12.1917 3.27266 12.4282V13.2854C3.27266 13.5219 3.0894 13.7139 2.86358 13.7139H2.04542C1.8196 13.7139 1.63633 13.5219 1.63633 13.2854V12.4282C1.63633 12.1917 1.8196 11.9997 2.04542 11.9997Z" fill="white"/>
</svg>
