<svg width="18" height="18" viewBox="0 0 18 18" fill="none" xmlns="http://www.w3.org/2000/svg">
<path d="M4.08611 0C1.83849 0 0 1.83849 0 4.08611V4.09091H1.63636V4.08611C1.63636 2.72229 2.72229 1.63636 4.08611 1.63636H4.09091V0H4.08611ZM13.9091 0V1.63636H13.9139C15.2777 1.63636 16.3636 2.72229 16.3636 4.08611V4.09091H18V4.08611C18 1.83849 16.1615 0 13.9139 0H13.9091ZM5.3006 3.27273C4.18051 3.27273 3.27273 4.18051 3.27273 5.3006V12.6994C3.27273 13.8195 4.18051 14.7273 5.3006 14.7273H12.6994C13.8195 14.7273 14.7273 13.8195 14.7273 12.6994V5.3006C14.7273 4.18051 13.8195 3.27273 12.6994 3.27273H5.3006ZM9.03036 5.11204C11.5038 5.13155 13.4332 7.46971 12.7473 10.0563C12.4037 11.3547 11.3547 12.4037 10.0563 12.7473C7.10019 13.5303 4.46884 10.8998 5.25266 7.94371C5.5963 6.64526 6.64608 5.5963 7.94371 5.25266C8.31323 5.15479 8.67701 5.10925 9.03036 5.11204ZM9 6.54545C7.65 6.54545 6.54545 7.65 6.54545 9C6.54545 10.35 7.65 11.4545 9 11.4545C10.35 11.4545 11.4545 10.35 11.4545 9C11.4545 8.60727 11.3619 8.23899 11.1909 7.91335C10.97 8.20217 10.62 8.38636 10.2273 8.38636C9.55227 8.38636 9 7.83409 9 7.15909C9 6.93818 9.05589 6.72939 9.1598 6.55185C9.10417 6.5453 9.05564 6.54545 9 6.54545ZM0 13.9091V13.9139C0 16.1615 1.83849 18 4.08611 18H4.09091V16.3636H4.08611C2.72229 16.3636 1.63636 15.2777 1.63636 13.9139V13.9091H0ZM16.3636 13.9091V13.9139C16.3636 15.2777 15.2777 16.3636 13.9139 16.3636H13.9091V18H13.9139C16.1615 18 18 16.1615 18 13.9139V13.9091H16.3636Z" fill="white"/>
</svg>
