<svg width="18" height="18" viewBox="0 0 18 18" fill="none" xmlns="http://www.w3.org/2000/svg">
<path d="M4.5 0C3.5055 0 2.7 0.895 2.7 2H15.3C15.3 0.895 14.4945 0 13.5 0H4.5ZM1.8 4C0.8055 4 0 4.895 0 6V16C0 17.105 0.8055 18 1.8 18H16.2C17.1945 18 18 17.105 18 16V6C18 4.895 17.1945 4 16.2 4H1.8ZM7.34766 7.76562C7.5035 7.76473 7.66363 7.8082 7.81348 7.9082L11.1639 10.1426C11.7462 10.5306 11.7462 11.4694 11.1639 11.8574L7.81348 14.0918C7.21408 14.4908 6.45117 14.0114 6.45117 13.2344V8.76562C6.45117 8.18287 6.88013 7.7683 7.34766 7.76562Z" fill="white"/>
</svg>
