<svg width="18" height="18" viewBox="0 0 18 18" fill="none" xmlns="http://www.w3.org/2000/svg">
<path d="M5.98447 0.000122599C5.93602 0.00117172 5.88772 0.00573753 5.83994 0.013784H4.80478C4.6317 0.0135538 4.46152 0.0582123 4.31089 0.143392C4.16025 0.228572 4.03432 0.351357 3.94541 0.49974L1.14267 5.18365C1.04955 5.3387 1.00027 5.5161 1.00009 5.69693V6.00919C1.00012 6.27419 1.10549 6.52834 1.29302 6.71572C1.48055 6.90311 1.73489 7.0084 2.00009 7.00842H5.00009V8.00766C4.99822 8.14007 5.0227 8.27153 5.07211 8.39441C5.12153 8.51728 5.19489 8.62911 5.28793 8.72341C5.38098 8.81771 5.49185 8.89259 5.61411 8.9437C5.73636 8.9948 5.86757 9.02112 6.00009 9.02112C6.13262 9.02112 6.26382 8.9948 6.38608 8.9437C6.50834 8.89259 6.61921 8.81771 6.71225 8.72341C6.8053 8.62911 6.87866 8.51728 6.92807 8.39441C6.97749 8.27153 7.00197 8.14007 7.00009 8.00766V7.00842C7.13261 7.0103 7.26417 6.98583 7.38714 6.93646C7.51011 6.88708 7.62203 6.81378 7.7164 6.7208C7.81077 6.62783 7.8857 6.51704 7.93685 6.39488C7.988 6.27272 8.01434 6.14161 8.01434 6.00919C8.01434 5.87677 7.988 5.74566 7.93685 5.6235C7.8857 5.50134 7.81077 5.39055 7.7164 5.29757C7.62203 5.2046 7.51011 5.1313 7.38714 5.08192C7.26417 5.03254 7.13261 5.00808 7.00009 5.00995V1.18086C7.02742 1.02019 7.01502 0.855289 6.96395 0.700514C6.91289 0.545739 6.82472 0.405791 6.70713 0.292867C6.70648 0.292216 6.70582 0.291565 6.70517 0.290915C6.70323 0.288956 6.70127 0.287004 6.69931 0.28506C6.69672 0.282444 6.69412 0.279842 6.6915 0.277254C6.50146 0.0955732 6.24745 -0.00399133 5.98447 0.000122599ZM10.9845 0.000122599C10.7196 0.00425984 10.4672 0.113236 10.2826 0.303135C10.0981 0.493033 9.99647 0.748339 10.0001 1.01302V6.00919V8.00766C9.99822 8.14007 10.0227 8.27153 10.0721 8.39441C10.1215 8.51728 10.1949 8.62911 10.2879 8.72341C10.381 8.81771 10.4918 8.89259 10.6141 8.9437C10.7364 8.9948 10.8676 9.02112 11.0001 9.02112C11.1326 9.02112 11.2638 8.9948 11.3861 8.9437C11.5083 8.89259 11.6192 8.81771 11.7123 8.72341C11.8053 8.62911 11.8787 8.51728 11.9281 8.39441C11.9775 8.27153 12.002 8.14007 12.0001 8.00766V7.00842L12.5743 6.00529L13.5157 8.35895C13.6717 8.75065 14.0527 9.00689 14.4747 9.00689C15.2057 9.00689 15.7037 8.26944 15.4317 7.59196L13.879 3.72188L15.1505 1.49897C15.5285 0.837481 15.0512 0.013784 14.2892 0.013784C13.9462 0.013784 13.6264 0.191398 13.4454 0.482175L12.0001 2.80071V1.01302C12.0019 0.879331 11.9769 0.746636 11.9265 0.622791C11.8761 0.498945 11.8013 0.386468 11.7066 0.292019C11.6119 0.19757 11.4992 0.123071 11.3751 0.0729318C11.2511 0.022793 11.1183 -0.00196541 10.9845 0.000122599ZM5.00009 2.63287V5.00995H3.57627L5.00009 2.63287ZM0.984469 11.9909C0.719594 11.9951 0.467182 12.104 0.282631 12.2939C0.0980793 12.4838 -0.00353344 12.7392 9.3882e-05 13.0038V16.0015C9.3882e-05 17.0938 0.907031 18 2.00009 18H16.0001C17.0932 18 18.0001 17.0938 18.0001 16.0015V13.0038C18.002 12.8714 17.9775 12.74 17.9281 12.6171C17.8787 12.4942 17.8053 12.3824 17.7123 12.2881C17.6192 12.1938 17.5083 12.1189 17.3861 12.0678C17.2638 12.0167 17.1326 11.9904 17.0001 11.9904C16.8676 11.9904 16.7364 12.0167 16.6141 12.0678C16.4918 12.1189 16.381 12.1938 16.2879 12.2881C16.1949 12.3824 16.1215 12.4942 16.0721 12.6171C16.0227 12.74 15.9982 12.8714 16.0001 13.0038V16.0015H2.00009V13.0038C2.00193 12.8701 1.97689 12.7374 1.92648 12.6136C1.87606 12.4898 1.80129 12.3773 1.70658 12.2828C1.61188 12.1884 1.49917 12.1139 1.37514 12.0637C1.2511 12.0136 1.11825 11.9888 0.984469 11.9909ZM5.00009 12.0046C4.44809 12.0046 4.00009 12.4523 4.00009 13.0038C4.00009 13.5554 4.44809 14.0031 5.00009 14.0031C5.55209 14.0031 6.00009 13.5554 6.00009 13.0038C6.00009 12.4523 5.55209 12.0046 5.00009 12.0046ZM9.00009 12.0046C8.44809 12.0046 8.00009 12.4523 8.00009 13.0038C8.00009 13.5554 8.44809 14.0031 9.00009 14.0031C9.55209 14.0031 10.0001 13.5554 10.0001 13.0038C10.0001 12.4523 9.55209 12.0046 9.00009 12.0046ZM13.0001 12.0046C12.4481 12.0046 12.0001 12.4523 12.0001 13.0038C12.0001 13.5554 12.4481 14.0031 13.0001 14.0031C13.5521 14.0031 14.0001 13.5554 14.0001 13.0038C14.0001 12.4523 13.5521 12.0046 13.0001 12.0046Z" fill="white"/>
</svg>
